<svg xmlns="http://www.w3.org/2000/svg" viewBox="0 0 32 32"><path fill="#ff9797" d="M26,22V4a2,2,0,0,0-2-2H8A2,2,0,0,0,6,4V26a4,4,0,0,1,4-4Z"/><path fill="#6d6daa" d="M6,27a1,1,0,0,1-1-1V4A3,3,0,0,1,8,1H24a3,3,0,0,1,3,3V22a1,1,0,0,1-1,1H10a3,3,0,0,0-3,3A1,1,0,0,1,6,27ZM8,3A1,1,0,0,0,7,4V22a5,5,0,0,1,3-1H25V4a1,1,0,0,0-1-1Z"/><path fill="#ffd599" d="M10,22H26a0,0,0,0,1,0,0v6a2,2,0,0,1-2,2H10a4,4,0,0,1-4-4v0A4,4,0,0,1,10,22Z"/><path fill="#6d6daa" d="M24,31H10a5,5,0,0,1,0-10H26a1,1,0,0,1,1,1v6A3,3,0,0,1,24,31ZM10,23a3,3,0,0,0,0,6H24a1,1,0,0,0,1-1V23Z"/></svg>