<svg xmlns="http://www.w3.org/2000/svg" enable-background="new 0 0 64 64" viewBox="0 0 64 64"><path fill="#ec6385" d="M35.75 17.013V6.777 6.776c8.246-7.736 21.88-1.868 21.88 9.482 0 .251-.007.504-.022.755C57.595 17.006 35.75 17.001 35.75 17.013zM28.25 17.013c0-.013-21.845-.007-21.857 0-.434-7.467 5.503-13.75 12.972-13.75 3.194 0 6.389 1.171 8.885 3.512C28.25 8.676 28.25 15.113 28.25 17.013z"/><path fill="#851e2c" d="M37.037,53.263H53.25c0,2.071-0.84,3.946-2.196,5.304c-1.357,1.356-3.232,2.196-5.304,2.196h-27.5c-4.142,0-7.5-3.357-7.5-7.5h16.212H37.037z"/><path fill="#dd2056" d="M56.405,21.773c2.255,4.815,1.395,10.727-2.581,14.705L37.037,53.263H26.962L10.176,36.478C6.2,32.501,5.34,26.588,7.595,21.773C10.509,27.995,53.824,27.284,56.405,21.773z"/><path fill="#fdd752" d="M40.75 12.013h3.75c0 1.38-.56 2.63-1.465 3.535-.905.905-2.155 1.465-3.535 1.465h-3.75c0-1.38.56-2.63 1.465-3.535C38.12 12.573 39.37 12.013 40.75 12.013zM28.25 17.013H24.5c-1.38 0-2.63-.56-3.535-1.465-.905-.905-1.465-2.155-1.465-3.535h3.75c1.38 0 2.63.56 3.535 1.465C27.69 14.383 28.25 15.633 28.25 17.013z"/><path fill="#feb8f8" d="M57.607 17.013c-.157 2.733-1.172 5.362-2.936 7.5H35.75v-7.5C40.118 17.013 49.837 17.013 57.607 17.013zM28.25 17.013v7.5H9.329c-1.764-2.137-2.779-4.766-2.936-7.5C14.006 17.013 23.946 17.013 28.25 17.013z"/><path fill="#fed3fd" d="M35.75,43.449l0.001,0.003c-2.201,1.707-5.301,1.707-7.502,0l0.001-0.003c0-4.349,0-32.372,0-36.672c0.271,0.252,0.112,0.104,3.75,3.739c3.643-3.639,3.48-3.488,3.75-3.739C35.75,8.388,35.75,41.297,35.75,43.449z"/><path fill="#ec6385" d="M35.75 43.449V24.513h18.921c-.705.859.002.055-18.339 18.425-.185.185-.38.356-.581.514L35.75 43.449zM28.25 24.513v18.936l-.001.003c-.201-.158-.396-.329-.581-.514C9.368 24.61 10.039 25.378 9.329 24.513H28.25z"/><path d="M37.037 53.888c-.16 0-.32-.061-.442-.183-.244-.244-.244-.64 0-.884l16.786-16.785c3.671-3.672 4.658-9.297 2.457-13.998-.146-.312-.012-.685.301-.831.313-.146.685-.012.831.301 2.424 5.175 1.336 11.369-2.705 15.412L37.479 53.705C37.357 53.827 37.197 53.888 37.037 53.888zM26.962 53.888c-.16 0-.32-.061-.442-.183L9.734 36.92c-4.042-4.043-5.129-10.237-2.705-15.412.146-.313.518-.448.831-.301.313.146.447.519.301.831-2.201 4.701-1.214 10.326 2.457 13.998l16.786 16.785c.244.244.244.64 0 .884C27.282 53.827 27.122 53.888 26.962 53.888zM28.25 44.074c-.345 0-.625-.28-.625-.625V6.777c0-.345.28-.625.625-.625s.625.28.625.625v36.672C28.875 43.795 28.595 44.074 28.25 44.074zM35.75 44.074c-.345 0-.625-.28-.625-.625V6.777c0-.345.28-.625.625-.625.345 0 .625.28.625.625v36.672C36.375 43.795 36.095 44.074 35.75 44.074z"/><path d="M28.25 25.138H9.329c-.345 0-.625-.28-.625-.625s.28-.625.625-.625H28.25c.345 0 .625.28.625.625S28.595 25.138 28.25 25.138zM24.5 17.638H6.392c-.345 0-.625-.28-.625-.625s.28-.625.625-.625H24.5c.345 0 .625.28.625.625S24.845 17.638 24.5 17.638zM57.607 17.638H39.5c-.345 0-.625-.28-.625-.625s.28-.625.625-.625h18.107c.345 0 .625.28.625.625S57.952 17.638 57.607 17.638zM54.671 25.138H35.75c-.345 0-.625-.28-.625-.625s.28-.625.625-.625h18.921c.345 0 .625.28.625.625S55.016 25.138 54.671 25.138z"/><path d="M31.999,45.362c-1.459,0-2.917-0.472-4.134-1.416c-0.001-0.001-0.001-0.001-0.002-0.002c-0.226-0.177-0.441-0.367-0.638-0.564L9.734,25.889c-0.314-0.314-0.613-0.643-0.889-0.979c-0.723-0.876-1.335-1.843-1.817-2.872c-0.737-1.572-1.161-3.251-1.26-4.989c-0.225-3.877,1.22-7.676,3.966-10.421c2.573-2.573,5.993-3.989,9.631-3.989c3.474,0,6.781,1.307,9.313,3.682c0.008,0.007,0.015,0.014,0.022,0.021c0.099,0.092,0.199,0.188,0.296,0.286L32,9.632l3.004-3.004c0.098-0.098,0.197-0.194,0.296-0.286c0.007-0.007,0.014-0.014,0.022-0.021c2.586-2.426,5.971-3.734,9.518-3.68c3.56,0.053,6.907,1.469,9.425,3.988c2.573,2.572,3.989,5.993,3.989,9.631c0,0.263-0.008,0.53-0.024,0.792c-0.1,1.737-0.524,3.416-1.26,4.988c-0.482,1.029-1.093,1.995-1.818,2.873c-0.275,0.334-0.574,0.664-0.888,0.978L36.774,43.38c-0.197,0.197-0.412,0.387-0.638,0.564C34.918,44.889,33.458,45.362,31.999,45.362z M28.633,42.959c1.983,1.538,4.753,1.537,6.735-0.001c0.185-0.144,0.361-0.3,0.522-0.462l17.491-17.491c0.285-0.285,0.557-0.584,0.806-0.889c0.659-0.798,1.214-1.675,1.651-2.608c0.669-1.427,1.054-2.952,1.145-4.531c0.014-0.239,0.021-0.481,0.021-0.719c0-3.304-1.287-6.41-3.623-8.747C48.638,2.769,41.098,2.639,36.2,7.21c-0.008,0.009-0.017,0.017-0.026,0.025c-0.097,0.09-0.192,0.182-0.287,0.276l-3.446,3.446c-0.117,0.117-0.276,0.183-0.442,0.183c-0.166,0-0.325-0.066-0.442-0.183l-3.446-3.446c-0.094-0.094-0.19-0.186-0.287-0.276c-0.009-0.008-0.018-0.017-0.026-0.025c-2.296-2.142-5.29-3.322-8.434-3.322c-3.304,0-6.41,1.287-8.747,3.623c-2.494,2.494-3.806,5.944-3.602,9.466c0.091,1.579,0.476,3.104,1.144,4.531c0.437,0.934,0.992,1.811,1.65,2.607c0.251,0.306,0.522,0.605,0.807,0.89l17.491,17.491C28.27,42.657,28.446,42.813,28.633,42.959z"/><path d="M39.5 17.638h-3.75c-.345 0-.625-.28-.625-.625 0-1.502.585-2.914 1.648-3.977 1.063-1.063 2.475-1.648 3.977-1.648h3.75c.345 0 .625.28.625.625 0 1.502-.585 2.914-1.648 3.977C42.414 17.053 41.002 17.638 39.5 17.638zM36.419 16.388H39.5c1.168 0 2.266-.455 3.093-1.282.677-.677 1.105-1.537 1.238-2.468H40.75c-1.168 0-2.266.455-3.093 1.282C36.979 14.597 36.551 15.457 36.419 16.388zM28.25 17.638H24.5c-1.502 0-2.914-.585-3.977-1.648-1.063-1.063-1.648-2.475-1.648-3.977 0-.345.28-.625.625-.625h3.75c1.502 0 2.914.585 3.977 1.648 1.063 1.063 1.648 2.475 1.648 3.977C28.875 17.358 28.595 17.638 28.25 17.638zM20.169 12.638c.133.931.561 1.791 1.238 2.468.827.827 1.925 1.282 3.093 1.282h3.081c-.133-.931-.561-1.791-1.238-2.468-.827-.827-1.925-1.282-3.093-1.282H20.169zM45.75 61.388h-27.5c-4.48 0-8.125-3.645-8.125-8.125 0-.345.28-.625.625-.625h42.5c.345 0 .625.28.625.625 0 2.169-.845 4.21-2.379 5.746C49.96 60.543 47.919 61.388 45.75 61.388zM11.403 53.888c.317 3.499 3.267 6.25 6.847 6.25h27.5c1.836 0 3.562-.715 4.862-2.013 1.149-1.151 1.842-2.637 1.985-4.237H11.403z"/></svg>