<svg xmlns="http://www.w3.org/2000/svg" id="Layer_1" enable-background="new 0 0 64 64" viewBox="0 0 64 64"><path fill="#4e5292" d="M59.68,9.74c-3.36-3.81-4.72-6.05-5.53-7.39c-0.79-1.29-1.26-2.08-2.64-2.32c-0.72-0.13-1.46,0.09-2.04,0.57
		c-0.63,0.52-1,1.34-1,2.15V16.4c-5.19-5.13-12.18-8.03-19.54-8.03C13.6,8.38,1.13,20.85,1.13,36.19S13.6,64,28.94,64
		c15.34,0,27.82-12.47,27.82-27.81c0-4.42-1.08-8.82-3.09-12.71V12.99c2.48,1.53,6.75,5.68,4.25,15.54
		c-0.12,0.46,0.12,0.94,0.55,1.12c0.44,0.19,0.95,0.04,1.2-0.37C59.75,29.18,66.83,17.85,59.68,9.74z M54.82,36.19
		c0,14.26-11.62,25.87-25.88,25.87S3.07,50.45,3.07,36.19s11.61-25.87,25.87-25.87c7.52,0,14.61,3.25,19.54,8.91v12.7
		c-1.18-0.07-2.44,0.11-3.66,0.5c-1.81,0.59-3.37,1.63-4.39,2.92c-1.12,1.4-1.47,2.94-1.02,4.33c0.46,1.4,1.67,2.41,3.39,2.88
		c0.08,0.03,0.16,0.03,0.25,0.05c-2.5,5.48-8.04,9.08-14.12,9.08c-0.53,0-0.97,0.44-0.97,0.97c0,0.54,0.44,0.97,0.97,0.97
		c7.06,0,13.45-4.32,16.13-10.8c0.98-0.02,2-0.18,3.01-0.51c0.15-0.05,0.27-0.12,0.42-0.16c-2.59,8.49-10.5,14.48-19.55,14.48
		c-0.53,0-0.97,0.44-0.97,0.97c0,0.54,0.44,0.97,0.97,0.97c10.53,0,19.65-7.4,21.86-17.64c1.74-1.24,2.84-2.91,2.87-4.6v-7.76
		C54.42,31.03,54.82,33.6,54.82,36.19z M53.06,10.52c-0.3-0.12-0.64-0.08-0.9,0.11c-0.26,0.17-0.43,0.48-0.43,0.8v24.84
		c0,1.6-1.83,3.41-4.27,4.22c-1.44,0.48-2.92,0.56-4.15,0.22c-0.62-0.16-1.72-0.6-2.06-1.62c-0.33-1.01,0.29-2.02,0.7-2.52
		c0.79-0.99,2.02-1.8,3.47-2.28c0.85-0.28,1.74-0.43,2.56-0.43c0.44,0,0.86,0.04,1.27,0.13c0.28,0.06,0.58-0.02,0.8-0.2
		c0.22-0.18,0.36-0.46,0.36-0.75V2.76c0-0.25,0.12-0.51,0.31-0.67c0.1-0.09,0.25-0.17,0.46-0.15c0.46,0.08,0.53,0.14,1.31,1.42
		c0.84,1.39,2.25,3.72,5.73,7.67c2.97,3.36,3.05,7.44,2.34,10.78C60.01,13.54,53.91,10.86,53.06,10.52z"/><path fill="#ffdb7c" d="M60.56,21.82c-0.55-8.27-6.65-10.96-7.51-11.3c-0.3-0.12-0.64-0.08-0.9,0.11c-0.26,0.17-0.43,0.48-0.43,0.8
		v24.84c0,1.6-1.83,3.41-4.27,4.22c-1.44,0.48-2.92,0.56-4.15,0.22c-0.62-0.16-1.72-0.6-2.06-1.62c-0.33-1.01,0.29-2.02,0.7-2.52
		c0.79-0.99,2.02-1.8,3.47-2.28c0.85-0.28,1.74-0.43,2.56-0.43c0.44,0,0.86,0.04,1.27,0.13c0.28,0.06,0.58-0.02,0.8-0.2
		c0.22-0.18,0.36-0.46,0.36-0.75V2.76c0-0.25,0.12-0.51,0.31-0.67c0.1-0.09,0.25-0.17,0.46-0.15c0.46,0.08,0.53,0.14,1.31,1.42
		c0.84,1.39,2.25,3.72,5.73,7.67C61.19,14.39,61.28,18.47,60.56,21.82z"/><path fill="#e1ba62" d="M60.84,20.04c-0.06,0.61-0.16,1.2-0.28,1.77c-0.55-8.27-6.65-10.96-7.51-11.3c-0.3-0.12-0.64-0.08-0.9,0.11
		c-0.26,0.17-0.43,0.48-0.43,0.8v-0.84c0-0.33,0.16-0.63,0.43-0.8c0.26-0.18,0.6-0.22,0.9-0.1C53.88,9.99,59.88,12.51,60.84,20.04z"/><path fill="#f0ca6c" d="M60.84,20.04c-0.96-7.53-6.96-10.05-7.79-10.37c-0.3-0.13-0.64-0.09-0.9,0.1c-0.26,0.17-0.43,0.48-0.43,0.8
		V9.03c0-0.32,0.16-0.62,0.43-0.8c0.26-0.18,0.6-0.22,0.9-0.11c0.8,0.32,6.29,3.32,7.85,9.71C60.95,18.58,60.92,19.32,60.84,20.04z"/><path fill="#e1ba62" d="M50.85,38.29c-0.76,0.91-1.97,1.72-3.38,2.18c-1.44,0.48-2.92,0.56-4.15,0.22c-0.62-0.16-1.72-0.6-2.06-1.62
		c-0.33-1.01,0.29-2.02,0.7-2.52c0.24-0.3,0.52-0.59,0.84-0.85c-0.04,0.04-0.08,0.09-0.12,0.14c-0.41,0.5-1.03,1.51-0.7,2.52
		c0.34,1.02,1.44,1.45,2.06,1.62c1.23,0.34,2.71,0.25,4.15-0.22C49.21,39.42,50.13,38.9,50.85,38.29z"/><path fill="#f0ca6c" d="M51.22,37.8c-0.12,0.16-0.23,0.33-0.38,0.49c-0.72,0.61-1.64,1.13-2.66,1.46c-1.44,0.48-2.92,0.56-4.15,0.22
		c-0.62-0.16-1.72-0.6-2.06-1.62c-0.33-1.01,0.29-2.02,0.7-2.52c0.04-0.05,0.08-0.1,0.12-0.14c0.35-0.3,0.75-0.56,1.18-0.8
		c-0.35,0.54-0.69,1.35-0.42,2.15c0.33,1.02,1.43,1.45,2.06,1.62c1.23,0.34,2.7,0.25,4.14-0.22C50.27,38.27,50.77,38.06,51.22,37.8z
		"/><path fill="#d8dfe6" d="M53.67,28.58v7.76c-0.03,1.69-1.13,3.36-2.87,4.6c-2.21,10.24-11.33,17.64-21.86,17.64
		c-0.53,0-0.97-0.43-0.97-0.97c0-0.53,0.44-0.97,0.97-0.97c9.05,0,16.96-5.98,19.55-14.48c-0.15,0.05-0.27,0.12-0.42,0.16
		c-1.01,0.33-2.03,0.49-3.01,0.51c-2.68,6.49-9.07,10.8-16.13,10.8c-0.53,0-0.97-0.43-0.97-0.97c0-0.53,0.44-0.97,0.97-0.97
		c6.08,0,11.62-3.6,14.12-9.08c-0.09-0.02-0.17-0.02-0.25-0.05c-1.73-0.47-2.94-1.48-3.39-2.88c-0.46-1.4-0.1-2.94,1.02-4.33
		c1.02-1.29,2.58-2.33,4.39-2.92c1.21-0.4,2.47-0.57,3.66-0.5v-12.7c-4.93-5.66-12.02-8.91-19.54-8.91
		c-14.27,0-25.87,11.61-25.87,25.87s11.61,25.87,25.87,25.87s25.88-11.61,25.88-25.87C54.82,33.6,54.42,31.03,53.67,28.58z
		 M8.49,36.19c0,0.53-0.43,0.97-0.97,0.97c-0.53,0-0.97-0.44-0.97-0.97c0-12.34,10.05-22.38,22.39-22.38c0.53,0,0.97,0.44,0.97,0.97
		c0,0.53-0.44,0.97-0.97,0.97C17.66,15.75,8.49,24.92,8.49,36.19z M13.42,36.19c0,0.53-0.43,0.97-0.97,0.97
		c-0.53,0-0.97-0.44-0.97-0.97c0-9.62,7.83-17.45,17.46-17.45c0.53,0,0.97,0.43,0.97,0.97c0,0.53-0.44,0.97-0.97,0.97
		C20.39,20.68,13.42,27.63,13.42,36.19z M20.18,36.19c0-4.83,3.93-8.76,8.76-8.76c4.83,0,8.76,3.93,8.76,8.76s-3.93,8.76-8.76,8.76
		C24.11,44.94,20.18,41.02,20.18,36.19z"/><path fill="#ccd5dd" d="M51.28,49.23c-0.91,1.56-1.98,3.02-3.19,4.34c-0.01,0.02-0.01,0.03-0.02,0.02
		c-4.62,4.3-10.79,6.91-17.58,6.91c-14.26,0-25.87-11.61-25.87-25.87c0-6.74,2.59-12.88,6.83-17.49c1.36-1.24,2.84-2.35,4.44-3.28
		c-1.17,1.99-2.08,4.14-2.68,6.42c-4.11,4.05-6.66,9.69-6.66,15.9c0,0.53,0.44,0.97,0.97,0.97c0.54,0,0.97-0.44,0.97-0.97
		c0-0.25,0-0.5,0.02-0.76c0.16-4.26,1.62-8.19,4.01-11.4c-0.11,0.94-0.16,1.91-0.16,2.88c0,1.11,0.07,2.2,0.21,3.27
		c-0.7,1.87-1.08,3.9-1.08,6.01c0,0.53,0.44,0.97,0.97,0.97c0.54,0,0.97-0.44,0.97-0.97c0-0.26,0.01-0.51,0.02-0.77
		c0.01-0.28,0.04-0.57,0.07-0.85c2.51,8.11,8.91,14.52,17.02,17.05c-0.27,0.02-0.54,0.05-0.82,0.06c-0.25,0.01-0.51,0.02-0.77,0.02
		c-0.53,0-0.97,0.44-0.97,0.97c0,0.54,0.44,0.97,0.97,0.97c2.08,0,4.09-0.37,5.97-1.08c1.09,0.16,2.18,0.22,3.31,0.22
		c0.96,0,1.91-0.05,2.84-0.16c-3.22,2.4-7.16,3.84-11.36,4c-0.25,0.02-0.51,0.02-0.77,0.02c-0.53,0-0.97,0.44-0.97,0.97
		c0,0.54,0.44,0.97,0.97,0.97c6.14,0,11.8-2.52,15.88-6.64C47.11,51.33,49.29,50.41,51.28,49.23z"/><path fill="#b5c3cc" d="M48.07,53.59c-4.74,5.2-11.57,8.47-19.13,8.47c-14.27,0-25.87-11.61-25.87-25.87c0-7.53,3.23-14.31,8.38-19.05
		C7.21,21.76,4.62,27.9,4.62,34.64c0,14.26,11.61,25.87,25.87,25.87C37.28,60.51,43.46,57.89,48.07,53.59z"/><path fill="#4e5292" d="M28.94,32.2c-2.2,0-4,1.78-4,3.99c0,2.2,1.79,4,4,4c2.2,0,3.99-1.79,3.99-4C32.93,33.99,31.14,32.2,28.94,32.2
		z M28.94,38.24c-1.13,0-2.06-0.92-2.06-2.06c0-1.13,0.92-2.05,2.06-2.05c1.12,0,2.05,0.91,2.05,2.05
		C30.99,37.32,30.06,38.24,28.94,38.24z"/><path fill="#4e5292" d="M28.94,27.43c-4.83,0-8.76,3.93-8.76,8.76s3.93,8.76,8.76,8.76c4.83,0,8.76-3.93,8.76-8.76
		S33.77,27.43,28.94,27.43z M28.94,43c-3.76,0-6.82-3.05-6.82-6.82s3.05-6.82,6.82-6.82c3.75,0,6.82,3.05,6.82,6.82
		S32.69,43,28.94,43z"/><path fill="#e2cec3" d="M28.94,29.37c-3.76,0-6.82,3.05-6.82,6.82S25.18,43,28.94,43c3.75,0,6.82-3.05,6.82-6.82
		S32.69,29.37,28.94,29.37z M28.94,40.18c-2.2,0-4-1.79-4-4c0-2.2,1.79-3.99,4-3.99c2.2,0,3.99,1.78,3.99,3.99
		C32.93,38.39,31.14,40.18,28.94,40.18z"/><path fill="#cfb7a5" d="M35.32,38.57c-0.26,0.7-0.63,1.34-1.1,1.91c-1.17,0.96-2.67,1.53-4.3,1.53c-3.76,0-6.82-3.05-6.82-6.82
		c0-1.63,0.57-3.12,1.53-4.3c0.56-0.47,1.2-0.83,1.9-1.1c-0.28,0.75-0.44,1.55-0.44,2.4c0,0.37,0.03,0.74,0.1,1.1
		c-0.78,0.72-1.26,1.75-1.26,2.89c0,2.2,1.79,4,4,4c1.14,0,2.17-0.48,2.89-1.26c0.36,0.07,0.73,0.1,1.1,0.1
		C33.77,39.02,34.57,38.86,35.32,38.57z"/><path fill="#bea796" d="M34.23,40.48C32.97,42.03,31.06,43,28.94,43c-3.76,0-6.82-3.05-6.82-6.82c0-2.13,0.98-4.04,2.52-5.29
		c-0.96,1.17-1.53,2.67-1.53,4.3c0,3.76,3.05,6.82,6.82,6.82C31.56,42.02,33.05,41.44,34.23,40.48z"/><path fill="#4e5292" d="M29.91,14.78c0,0.53-0.44,0.97-0.97,0.97c-11.28,0-20.45,9.17-20.45,20.44c0,0.53-0.43,0.97-0.97,0.97
		c-0.53,0-0.97-0.44-0.97-0.97c0-12.34,10.05-22.38,22.39-22.38C29.47,13.81,29.91,14.24,29.91,14.78z"/><path fill="#4e5292" d="M29.91,19.71c0,0.53-0.44,0.97-0.97,0.97c-8.55,0-15.52,6.95-15.52,15.51c0,0.53-0.43,0.97-0.97,0.97
		c-0.53,0-0.97-0.44-0.97-0.97c0-9.62,7.83-17.45,17.46-17.45C29.47,18.74,29.91,19.17,29.91,19.71z"/></svg>