<svg xmlns="http://www.w3.org/2000/svg" viewBox="0 0 512 512"><path fill="#e6e6e6" d="M190.14,133.5a7.5,7.5,0,0,1-5-13l26-23.68a14,14,0,0,0,3.11-16.39,28.29,28.29,0,0,1,35.13-39,23.26,23.26,0,0,0,9.05,1.43L331.72,40a7.51,7.51,0,1,1,.56,15l-73.35,2.76a38.6,38.6,0,0,1-14.79-2.34,13.29,13.29,0,0,0-16.5,18.35,29,29,0,0,1-6.47,34.1l-26,23.67A7.45,7.45,0,0,1,190.14,133.5Z"/><path fill="#fde8a3" d="M205.26,130.51,184.05,109.3a17.53,17.53,0,0,0-24.75,0L124,144.66a7.49,7.49,0,0,0,0,10.6l35.35,35.36a7.5,7.5,0,0,0,10.61,0l35.35-35.36A17.51,17.51,0,0,0,205.26,130.51Z"/><path fill="#fdda6b" d="M124,154.66,159.3,119.3a17.53,17.53,0,0,1,24.75,0l21.21,21.21a17.42,17.42,0,0,1,4.4,7.38,17.53,17.53,0,0,0-4.4-17.38L184.05,109.3a17.53,17.53,0,0,0-24.75,0L124,144.66a7.49,7.49,0,0,0-.28,10.3A4,4,0,0,1,124,154.66Z"/><path fill="#beece1" d="M166.44,148.2a97.46,97.46,0,1,0,0,137.89h0a97.5,97.5,0,0,0,0-137.89Z"/><path fill="#7dd9c2" d="M166.44,148.2a97.61,97.61,0,0,0-137.88,0q-2.6,2.6-5,5.35A97.49,97.49,0,0,1,161.42,290.74c1.71-1.49,3.39-3,5-4.65h0a97.5,97.5,0,0,0,0-137.89Z"/><path fill="#fde8a3" d="M414.88,30h-32.5a7.5,7.5,0,0,0-7.5,7.5v40a7.5,7.5,0,0,0,7.5,7.5h32.5a15,15,0,0,0,15-15V45A15,15,0,0,0,414.88,30Z"/><path fill="#fdda6b" d="M414.88,30h-32.5a7.5,7.5,0,0,0-7.5,7.5V40h30a15,15,0,0,1,15,15V80a14.92,14.92,0,0,1-.65,4.35A15,15,0,0,0,429.88,70V45A15,15,0,0,0,414.88,30Z"/><path fill="#beece1" d="M374.5,0h-85a15,15,0,0,0-15,15v92.5A7.5,7.5,0,0,0,282,115H382a7.5,7.5,0,0,0,7.5-7.5V15A15,15,0,0,0,374.5,0Z"/><path fill="#7dd9c2" d="M374.5,0h-85a15,15,0,0,0-14.35,10.65A14.92,14.92,0,0,1,279.5,10h85a15,15,0,0,1,15,15v90H382a7.5,7.5,0,0,0,7.5-7.5V15A15,15,0,0,0,374.5,0Z"/><path fill="#f2f2f2" d="M467.7,262.62l-80-158.5A7.51,7.51,0,0,0,381,100H281a7.51,7.51,0,0,0-6.7,4.12l-80,158.5a7.49,7.49,0,0,0-.16,6.41l78.07,177.12-46.85,53.4A7.51,7.51,0,0,0,231,512H431a7.51,7.51,0,0,0,5.64-12.45l-46.85-53.4L467.86,269A7.49,7.49,0,0,0,467.7,262.62Z"/><path fill="#e6e6e6" d="M467.7,262.62l-80-158.5A7.51,7.51,0,0,0,381,100H361a7.51,7.51,0,0,1,6.7,4.12l80,158.5a7.49,7.49,0,0,1,.16,6.41L369.79,446.15l46.85,53.4A7.51,7.51,0,0,1,411,512h20a7.51,7.51,0,0,0,5.64-12.45l-46.85-53.4L467.86,269A7.49,7.49,0,0,0,467.7,262.62Z"/><path fill="#beece1" d="M389.79,446.15l0-.11H272.16l0,.11-46.85,53.4A7.51,7.51,0,0,0,231,512H431a7.51,7.51,0,0,0,5.64-12.45Z"/><path fill="#7dd9c2" d="M389.79,446.15l0-.11h-20l0,.11,46.85,53.4A7.51,7.51,0,0,1,411,512h20a7.51,7.51,0,0,0,5.64-12.45Z"/><path fill="#ff97a4" d="M504.5 66.64h-40a7.5 7.5 0 0 1 0-15h40a7.5 7.5 0 0 1 0 15zM464.5 37.9a7.5 7.5 0 0 1-5.3-12.8L481.89 2.41A7.5 7.5 0 0 1 492.49 13L469.8 35.71A7.47 7.47 0 0 1 464.5 37.9zM487.19 118.07a7.47 7.47 0 0 1-5.3-2.19L459.2 93.18a7.5 7.5 0 1 1 10.6-10.6l22.69 22.69a7.5 7.5 0 0 1-5.3 12.8z"/><rect width="175" height="55" x="243.5" y="100" fill="#fde8a3" rx="15" ry="15"/><path fill="#fdda6b" d="M403.5,100h-145a15,15,0,0,0-14.35,10.65,14.92,14.92,0,0,1,4.35-.65h145a15,15,0,0,1,15,15v25a14.92,14.92,0,0,1-.65,4.35A15,15,0,0,0,418.5,140V115A15,15,0,0,0,403.5,100Z"/><path fill="#e6e6e6" d="M371.15,219.46A53,53,0,0,0,329.4,240l-3.4,4.38L322.6,240a53,53,0,0,0-41.75-20.49h0a42.23,42.23,0,0,0-42.35,42,65.92,65.92,0,0,0,1.42,13.78c13.71,63.61,86.08,87.6,86.08,87.6s72.37-24,86.08-87.6a65.92,65.92,0,0,0,1.42-13.78A42.23,42.23,0,0,0,371.15,219.46Z"/><path fill="#ff97a4" d="M376.15,214.46A53,53,0,0,0,334.4,235l-3.4,4.38L327.6,235a53,53,0,0,0-41.75-20.49h0a42.23,42.23,0,0,0-42.35,42,65.92,65.92,0,0,0,1.42,13.78c13.71,63.61,86.08,87.6,86.08,87.6s72.37-24,86.08-87.6a65.92,65.92,0,0,0,1.42-13.78A42.23,42.23,0,0,0,376.15,214.46Z"/><path fill="#ff7d8d" d="M376.15 214.46A53 53 0 0 0 334.4 235l-.34.44a53 53 0 0 1 32.09-10.93 42.23 42.23 0 0 1 42.35 42 65.92 65.92 0 0 1-1.42 13.78c-4.08 18.93-13.36 34.35-24.37 46.67 15.16-13.63 29.1-32.22 34.37-56.67a65.92 65.92 0 0 0 1.42-13.78A42.23 42.23 0 0 0 376.15 214.46zM275.85 224.46h0A53 53 0 0 1 317.6 245l3.4 4.38 3.4-4.38a52.93 52.93 0 0 1 6-6.46L327.6 235a53 53 0 0 0-41.75-20.49h0a42.44 42.44 0 0 0-34.63 17.88A42.32 42.32 0 0 1 275.85 224.46z"/></svg>