<svg xmlns="http://www.w3.org/2000/svg" viewBox="0 0 32 32"><path fill="#68c7d3" d="M26,31H10a5,5,0,0,1,0-10H26a5,5,0,0,1,0,10Z"/><path fill="#d1e6e9" d="M26,31H18V21h8a5,5,0,0,1,0,10Z"/><path fill="#68c7d3" d="M29.54,9.54l-5.66,5.65L16.81,8.12l5.65-5.66a5,5,0,0,1,7.08,7.08Z"/><path fill="#d1e6e9" d="M2.46,9.54l5.66,5.65,7.07-7.07L9.54,2.46A5,5,0,0,0,2.46,9.54Z"/><path fill="#a1d8df" d="M14 14a1 1 0 0 1-2 0A1 1 0 0 1 14 14zM17 12a1 1 0 0 1-2 0A1 1 0 0 1 17 12zM19 15a1 1 0 0 1-2 0A1 1 0 0 1 19 15zM16 18a1 1 0 0 1-2 0A1 1 0 0 1 16 18z"/></svg>